<svg width="181" height="22" viewBox="0 0 181 22" fill="none" xmlns="http://www.w3.org/2000/svg">
<path fill-rule="evenodd" clip-rule="evenodd" d="M4.67508 4.83341C3.65933 4.83341 2.83341 5.65933 2.83341 6.67508C2.83341 11.9082 7.09121 16.1667 12.3251 16.1667C13.3401 16.1667 14.1667 15.3408 14.1667 14.3251C14.1667 14.2465 14.1618 14.1692 14.1519 14.0927L10.8794 13.3419C10.8142 13.4666 10.7427 13.6019 10.6775 13.728C10.3545 14.3442 10.1207 14.7919 9.52433 14.5517C7.18258 13.7301 5.27079 11.8176 4.4385 9.4475C4.18562 8.89146 4.66729 8.63929 5.27787 8.32054C5.40183 8.25537 5.53571 8.18525 5.65825 8.1215L4.90741 4.84829C4.82879 4.83837 4.75229 4.83341 4.67508 4.83341ZM12.3251 17.5834C6.30992 17.5834 1.41675 12.6902 1.41675 6.67508C1.41675 4.87804 2.87804 3.41675 4.67508 3.41675C4.85925 3.41675 5.04129 3.43233 5.21766 3.46279C5.38979 3.49041 5.56262 3.53433 5.73121 3.59241C5.96141 3.67246 6.13496 3.86583 6.1895 4.10383L7.15921 8.32833C7.21304 8.56067 7.14575 8.80433 6.98 8.97716C6.88367 9.07775 6.88154 9.07987 6.00321 9.53958C6.71437 11.0795 7.95042 12.3113 9.45917 12.9984C9.91958 12.1193 9.92241 12.1165 10.023 12.0202C10.1958 11.8544 10.4409 11.79 10.6718 11.841L14.897 12.8107C15.1343 12.8652 15.3277 13.038 15.407 13.2682C15.4651 13.4354 15.509 13.6082 15.5381 13.786C15.5678 13.961 15.5834 14.1423 15.5834 14.3251C15.5834 16.1221 14.1214 17.5834 12.3251 17.5834Z" fill="black"/>
<mask id="mask0_174_46" style="mask-type:alpha" maskUnits="userSpaceOnUse" x="1" y="3" width="15" height="15">
<path fill-rule="evenodd" clip-rule="evenodd" d="M4.67508 4.83341C3.65933 4.83341 2.83341 5.65933 2.83341 6.67508C2.83341 11.9082 7.09121 16.1667 12.3251 16.1667C13.3401 16.1667 14.1667 15.3408 14.1667 14.3251C14.1667 14.2465 14.1618 14.1692 14.1519 14.0927L10.8794 13.3419C10.8142 13.4666 10.7427 13.6019 10.6775 13.728C10.3545 14.3442 10.1207 14.7919 9.52433 14.5517C7.18258 13.7301 5.27079 11.8176 4.4385 9.4475C4.18562 8.89146 4.66729 8.63929 5.27787 8.32054C5.40183 8.25537 5.53571 8.18525 5.65825 8.1215L4.90741 4.84829C4.82879 4.83837 4.75229 4.83341 4.67508 4.83341ZM12.3251 17.5834C6.30992 17.5834 1.41675 12.6902 1.41675 6.67508C1.41675 4.87804 2.87804 3.41675 4.67508 3.41675C4.85925 3.41675 5.04129 3.43233 5.21766 3.46279C5.38979 3.49041 5.56262 3.53433 5.73121 3.59241C5.96141 3.67246 6.13496 3.86583 6.1895 4.10383L7.15921 8.32833C7.21304 8.56067 7.14575 8.80433 6.98 8.97716C6.88367 9.07775 6.88154 9.07987 6.00321 9.53958C6.71437 11.0795 7.95042 12.3113 9.45917 12.9984C9.91958 12.1193 9.92241 12.1165 10.023 12.0202C10.1958 11.8544 10.4409 11.79 10.6718 11.841L14.897 12.8107C15.1343 12.8652 15.3277 13.038 15.407 13.2682C15.4651 13.4354 15.509 13.6082 15.5381 13.786C15.5678 13.961 15.5834 14.1423 15.5834 14.3251C15.5834 16.1221 14.1214 17.5834 12.3251 17.5834Z" fill="white"/>
</mask>
<g mask="url(#mask0_174_46)">
<rect y="2" width="17" height="17" fill="#00AC4E"/>
</g>
<path d="M22.63 12.5V10.88H25.87V7.64H27.4V10.88H30.64V12.5H27.4V15.74H25.87V12.5H22.63ZM32.7037 17L37.9237 6.29H31.8037V4.4H40.0837V6.2L34.8637 17H32.7037ZM49.9745 20.15L48.6065 21.05C48.0065 20.39 47.4845 19.616 47.0405 18.728C45.9965 16.76 45.4745 14.684 45.4745 12.5C45.4745 10.34 45.9965 8.264 47.0405 6.272C47.4845 5.408 48.0065 4.634 48.6065 3.95L49.9745 4.85C49.4825 5.474 49.0325 6.188 48.6245 6.992C47.7245 8.744 47.2745 10.58 47.2745 12.5C47.2745 14.42 47.7245 16.256 48.6245 18.008C49.0325 18.812 49.4825 19.526 49.9745 20.15ZM53.794 11.816C53.35 12.2 53.128 12.698 53.128 13.31C53.128 13.922 53.35 14.42 53.794 14.804C54.238 15.188 54.856 15.38 55.648 15.38C56.44 15.38 57.058 15.188 57.502 14.804C57.946 14.42 58.168 13.922 58.168 13.31C58.168 12.698 57.946 12.2 57.502 11.816C57.058 11.432 56.44 11.24 55.648 11.24C54.856 11.24 54.238 11.432 53.794 11.816ZM54.19 6.488C53.842 6.8 53.668 7.214 53.668 7.73C53.668 8.246 53.842 8.66 54.19 8.972C54.538 9.284 55.024 9.44 55.648 9.44C56.272 9.44 56.758 9.284 57.106 8.972C57.454 8.66 57.628 8.246 57.628 7.73C57.628 7.214 57.454 6.8 57.106 6.488C56.758 6.176 56.272 6.02 55.648 6.02C55.024 6.02 54.538 6.176 54.19 6.488ZM51.148 13.4C51.148 12.416 51.508 11.6 52.228 10.952C52.54 10.664 52.9 10.43 53.308 10.25C52.996 10.082 52.726 9.878 52.498 9.638C51.958 9.074 51.688 8.378 51.688 7.55C51.688 6.626 52.054 5.84 52.786 5.192C53.518 4.544 54.472 4.22 55.648 4.22C56.824 4.22 57.778 4.544 58.51 5.192C59.242 5.84 59.608 6.626 59.608 7.55C59.608 8.378 59.338 9.074 58.798 9.638C58.57 9.878 58.3 10.082 57.988 10.25C58.396 10.43 58.756 10.664 59.068 10.952C59.788 11.6 60.148 12.416 60.148 13.4C60.148 14.48 59.734 15.38 58.906 16.1C58.09 16.82 57.004 17.18 55.648 17.18C54.292 17.18 53.2 16.82 52.372 16.1C51.556 15.38 51.148 14.48 51.148 13.4ZM61.0495 15.29L62.3995 13.94C62.5915 14.192 62.8435 14.432 63.1555 14.66C63.8275 15.14 64.5955 15.38 65.4595 15.38C66.2515 15.38 66.8695 15.188 67.3135 14.804C67.7575 14.42 67.9795 13.922 67.9795 13.31C67.9795 12.746 67.7575 12.278 67.3135 11.906C66.8695 11.522 66.2515 11.33 65.4595 11.33H64.1095V9.44H65.4595C66.1315 9.44 66.6415 9.284 66.9895 8.972C67.3495 8.66 67.5295 8.246 67.5295 7.73C67.5295 7.214 67.3495 6.8 66.9895 6.488C66.6415 6.176 66.1315 6.02 65.4595 6.02C64.7995 6.02 64.1335 6.23 63.4615 6.65C63.1615 6.866 62.9275 7.076 62.7595 7.28L61.4095 5.93C61.7455 5.594 62.0935 5.312 62.4535 5.084C63.3895 4.508 64.3915 4.22 65.4595 4.22C66.6835 4.22 67.6615 4.544 68.3935 5.192C69.1375 5.828 69.5095 6.614 69.5095 7.55C69.5095 8.438 69.1915 9.164 68.5555 9.728C68.3155 9.956 68.0035 10.16 67.6195 10.34C68.0635 10.508 68.4535 10.724 68.7895 10.988C69.5695 11.648 69.9595 12.452 69.9595 13.4C69.9595 14.48 69.5455 15.38 68.7175 16.1C67.9015 16.82 66.8155 17.18 65.4595 17.18C64.1995 17.18 63.0955 16.868 62.1475 16.244C61.7395 15.992 61.3735 15.674 61.0495 15.29ZM73.7472 17V7.37H71.4972V6.11C72.2652 6.014 72.8472 5.828 73.2432 5.552C73.6392 5.276 73.9572 4.892 74.1972 4.4H75.7272V17H73.7472ZM79.1673 21.05L77.7993 20.15C78.2913 19.526 78.7413 18.812 79.1493 18.008C80.0493 16.16 80.4993 14.324 80.4993 12.5C80.4993 10.676 80.0493 8.84 79.1493 6.992C78.7413 6.188 78.2913 5.474 77.7993 4.85L79.1673 3.95C79.7433 4.634 80.2653 5.408 80.7333 6.272C81.7773 8.264 82.2993 10.34 82.2993 12.5C82.2993 14.66 81.7773 16.736 80.7333 18.728C80.2653 19.616 79.7433 20.39 79.1673 21.05ZM90.1321 15.11H96.2521V17H87.7921C87.7921 16.232 87.9121 15.53 88.1521 14.894C88.3921 14.258 88.6981 13.724 89.0701 13.292C89.4541 12.86 89.8741 12.464 90.3301 12.104C90.7981 11.732 91.2601 11.396 91.7161 11.096C92.1841 10.796 92.6041 10.502 92.9761 10.214C93.3601 9.926 93.6721 9.602 93.9121 9.242C94.1521 8.882 94.2721 8.498 94.2721 8.09C94.2721 7.49 94.0741 7.01 93.6781 6.65C93.2821 6.29 92.7301 6.11 92.0221 6.11C91.2421 6.11 90.6001 6.398 90.0961 6.974C89.8921 7.202 89.7241 7.484 89.5921 7.82L87.9721 7.1C88.1281 6.572 88.3861 6.092 88.7461 5.66C89.5381 4.7 90.6301 4.22 92.0221 4.22C93.2581 4.22 94.2721 4.592 95.0641 5.336C95.8561 6.08 96.2521 6.998 96.2521 8.09C96.2521 8.666 96.1321 9.2 95.8921 9.692C95.6521 10.184 95.3461 10.598 94.9741 10.934C94.6141 11.258 94.1941 11.594 93.7141 11.942C93.2461 12.278 92.7901 12.59 92.3461 12.878C91.9141 13.154 91.4881 13.49 91.0681 13.886C90.6601 14.282 90.3481 14.69 90.1321 15.11ZM100.78 11.816C100.336 12.2 100.114 12.698 100.114 13.31C100.114 13.922 100.336 14.42 100.78 14.804C101.224 15.188 101.842 15.38 102.634 15.38C103.426 15.38 104.044 15.188 104.488 14.804C104.932 14.42 105.154 13.922 105.154 13.31C105.154 12.698 104.932 12.2 104.488 11.816C104.044 11.432 103.426 11.24 102.634 11.24C101.842 11.24 101.224 11.432 100.78 11.816ZM101.176 6.488C100.828 6.8 100.654 7.214 100.654 7.73C100.654 8.246 100.828 8.66 101.176 8.972C101.524 9.284 102.01 9.44 102.634 9.44C103.258 9.44 103.744 9.284 104.092 8.972C104.44 8.66 104.614 8.246 104.614 7.73C104.614 7.214 104.44 6.8 104.092 6.488C103.744 6.176 103.258 6.02 102.634 6.02C102.01 6.02 101.524 6.176 101.176 6.488ZM98.1344 13.4C98.1344 12.416 98.4944 11.6 99.2144 10.952C99.5264 10.664 99.8864 10.43 100.294 10.25C99.9824 10.082 99.7124 9.878 99.4844 9.638C98.9444 9.074 98.6744 8.378 98.6744 7.55C98.6744 6.626 99.0404 5.84 99.7724 5.192C100.504 4.544 101.458 4.22 102.634 4.22C103.81 4.22 104.764 4.544 105.496 5.192C106.228 5.84 106.594 6.626 106.594 7.55C106.594 8.378 106.324 9.074 105.784 9.638C105.556 9.878 105.286 10.082 104.974 10.25C105.382 10.43 105.742 10.664 106.054 10.952C106.774 11.6 107.134 12.416 107.134 13.4C107.134 14.48 106.72 15.38 105.892 16.1C105.076 16.82 103.99 17.18 102.634 17.18C101.278 17.18 100.186 16.82 99.3584 16.1C98.5424 15.38 98.1344 14.48 98.1344 13.4ZM110.997 15.11H117.117V17H108.657C108.657 16.232 108.777 15.53 109.017 14.894C109.257 14.258 109.563 13.724 109.935 13.292C110.319 12.86 110.739 12.464 111.195 12.104C111.663 11.732 112.125 11.396 112.581 11.096C113.049 10.796 113.469 10.502 113.841 10.214C114.225 9.926 114.537 9.602 114.777 9.242C115.017 8.882 115.137 8.498 115.137 8.09C115.137 7.49 114.939 7.01 114.543 6.65C114.147 6.29 113.595 6.11 112.887 6.11C112.107 6.11 111.465 6.398 110.961 6.974C110.757 7.202 110.589 7.484 110.457 7.82L108.837 7.1C108.993 6.572 109.251 6.092 109.611 5.66C110.403 4.7 111.495 4.22 112.887 4.22C114.123 4.22 115.137 4.592 115.929 5.336C116.721 6.08 117.117 6.998 117.117 8.09C117.117 8.666 116.997 9.2 116.757 9.692C116.517 10.184 116.211 10.598 115.839 10.934C115.479 11.258 115.059 11.594 114.579 11.942C114.111 12.278 113.655 12.59 113.211 12.878C112.779 13.154 112.353 13.49 111.933 13.886C111.525 14.282 111.213 14.69 110.997 15.11ZM118.365 12.5V10.88H124.125V12.5H118.365ZM126.648 10.16L130.338 4.4H132.498L129.618 8.81L129.816 8.774C130.068 8.738 130.272 8.72 130.428 8.72C131.64 8.72 132.66 9.134 133.488 9.962C134.328 10.778 134.748 11.774 134.748 12.95C134.748 14.138 134.322 15.14 133.47 15.956C132.618 16.772 131.544 17.18 130.248 17.18C128.952 17.18 127.878 16.772 127.026 15.956C126.174 15.14 125.748 14.138 125.748 12.95C125.748 12.338 125.898 11.696 126.198 11.024C126.294 10.784 126.444 10.496 126.648 10.16ZM128.448 11.222C127.968 11.69 127.728 12.266 127.728 12.95C127.728 13.634 127.968 14.21 128.448 14.678C128.928 15.146 129.528 15.38 130.248 15.38C130.968 15.38 131.568 15.146 132.048 14.678C132.528 14.21 132.768 13.634 132.768 12.95C132.768 12.266 132.528 11.69 132.048 11.222C131.568 10.754 130.968 10.52 130.248 10.52C129.528 10.52 128.928 10.754 128.448 11.222ZM144.069 14.174C144.693 13.358 145.005 12.2 145.005 10.7C145.005 9.2 144.693 8.048 144.069 7.244C143.445 6.428 142.677 6.02 141.765 6.02C140.853 6.02 140.085 6.428 139.461 7.244C138.837 8.048 138.525 9.2 138.525 10.7C138.525 12.2 138.837 13.358 139.461 14.174C140.085 14.978 140.853 15.38 141.765 15.38C142.677 15.38 143.445 14.978 144.069 14.174ZM145.491 15.452C144.495 16.604 143.253 17.18 141.765 17.18C140.277 17.18 139.035 16.604 138.039 15.452C137.043 14.288 136.545 12.704 136.545 10.7C136.545 8.696 137.043 7.118 138.039 5.966C139.035 4.802 140.277 4.22 141.765 4.22C143.253 4.22 144.495 4.802 145.491 5.966C146.487 7.118 146.985 8.696 146.985 10.7C146.985 12.704 146.487 14.288 145.491 15.452ZM149.144 12.5V10.88H154.904V12.5H149.144ZM164.231 14.174C164.855 13.358 165.167 12.2 165.167 10.7C165.167 9.2 164.855 8.048 164.231 7.244C163.607 6.428 162.839 6.02 161.927 6.02C161.015 6.02 160.247 6.428 159.623 7.244C158.999 8.048 158.687 9.2 158.687 10.7C158.687 12.2 158.999 13.358 159.623 14.174C160.247 14.978 161.015 15.38 161.927 15.38C162.839 15.38 163.607 14.978 164.231 14.174ZM165.653 15.452C164.657 16.604 163.415 17.18 161.927 17.18C160.439 17.18 159.197 16.604 158.201 15.452C157.205 14.288 156.707 12.704 156.707 10.7C156.707 8.696 157.205 7.118 158.201 5.966C159.197 4.802 160.439 4.22 161.927 4.22C163.415 4.22 164.657 4.802 165.653 5.966C166.649 7.118 167.147 8.696 167.147 10.7C167.147 12.704 166.649 14.288 165.653 15.452ZM176.659 14.174C177.283 13.358 177.595 12.2 177.595 10.7C177.595 9.2 177.283 8.048 176.659 7.244C176.035 6.428 175.267 6.02 174.355 6.02C173.443 6.02 172.675 6.428 172.051 7.244C171.427 8.048 171.115 9.2 171.115 10.7C171.115 12.2 171.427 13.358 172.051 14.174C172.675 14.978 173.443 15.38 174.355 15.38C175.267 15.38 176.035 14.978 176.659 14.174ZM178.081 15.452C177.085 16.604 175.843 17.18 174.355 17.18C172.867 17.18 171.625 16.604 170.629 15.452C169.633 14.288 169.135 12.704 169.135 10.7C169.135 8.696 169.633 7.118 170.629 5.966C171.625 4.802 172.867 4.22 174.355 4.22C175.843 4.22 177.085 4.802 178.081 5.966C179.077 7.118 179.575 8.696 179.575 10.7C179.575 12.704 179.077 14.288 178.081 15.452Z" fill="black"/>
</svg>
